<svg data-v-fde0c5aa="" xmlns="http://www.w3.org/2000/svg" viewBox="0 0 300 300" class="iconLeft"><!----><defs data-v-fde0c5aa=""><!----></defs><rect data-v-fde0c5aa="" fill="#FEF2E5" x="0" y="0" width="300px" height="300px" class="logo-background-square"></rect><defs data-v-fde0c5aa=""><!----></defs><g data-v-fde0c5aa="" id="707abab5-e0aa-46af-8817-1bdf8766a6be" fill="#361C00" transform="matrix(2.4872022045032143,0,0,2.4872022045032143,84.75173190870466,130.8236715013962)"><path d="M5.77 4.38L7.63 4.38L7.63 4.38Q7.80 4.96 8.00 5.68L8.00 5.68L8.00 5.68Q8.20 6.40 8.44 7.17L8.44 7.17L8.44 7.17Q8.67 7.94 8.90 8.71L8.90 8.71L8.90 8.71Q9.14 9.48 9.37 10.14L9.37 10.14L9.37 10.14Q9.55 9.42 9.74 8.58L9.74 8.58L9.74 8.58Q9.93 7.74 10.09 6.85L10.09 6.85L10.09 6.85Q10.26 5.95 10.42 5.06L10.42 5.06L10.42 5.06Q10.58 4.17 10.72 3.35L10.72 3.35L12.99 3.35L12.99 3.35Q12.50 5.78 11.87 8.29L11.87 8.29L11.87 8.29Q11.23 10.79 10.49 13.05L10.49 13.05L8.48 13.05L8.48 13.05Q7.99 11.70 7.53 10.23L7.53 10.23L7.53 10.23Q7.07 8.75 6.62 7.27L6.62 7.27L6.62 7.27Q6.17 8.75 5.73 10.23L5.73 10.23L5.73 10.23Q5.28 11.70 4.79 13.05L4.79 13.05L2.79 13.05L2.79 13.05Q2.04 10.79 1.41 8.29L1.41 8.29L1.41 8.29Q0.77 5.78 0.28 3.35L0.28 3.35L2.65 3.35L2.65 3.35Q2.79 4.17 2.95 5.06L2.95 5.06L2.95 5.06Q3.12 5.95 3.30 6.85L3.30 6.85L3.30 6.85Q3.49 7.74 3.68 8.58L3.68 8.58L3.68 8.58Q3.86 9.42 4.06 10.14L4.06 10.14L4.06 10.14Q4.31 9.45 4.55 8.68L4.55 8.68L4.55 8.68Q4.79 7.91 5.01 7.14L5.01 7.14L5.01 7.14Q5.24 6.37 5.42 5.66L5.42 5.66L5.42 5.66Q5.61 4.94 5.77 4.38L5.77 4.38ZM21.14 9.35L21.14 9.35L21.14 9.35Q21.14 10.22 20.89 10.94L20.89 10.94L20.89 10.94Q20.64 11.66 20.16 12.17L20.16 12.17L20.16 12.17Q19.68 12.68 19.02 12.96L19.02 12.96L19.02 12.96Q18.35 13.24 17.53 13.24L17.53 13.24L17.53 13.24Q16.72 13.24 16.05 12.96L16.05 12.96L16.05 12.96Q15.39 12.68 14.91 12.17L14.91 12.17L14.91 12.17Q14.43 11.66 14.17 10.94L14.17 10.94L14.17 10.94Q13.90 10.22 13.90 9.35L13.90 9.35L13.90 9.35Q13.90 8.48 14.18 7.77L14.18 7.77L14.18 7.77Q14.45 7.06 14.93 6.55L14.93 6.55L14.93 6.55Q15.41 6.05 16.08 5.77L16.08 5.77L16.08 5.77Q16.74 5.49 17.53 5.49L17.53 5.49L17.53 5.49Q18.33 5.49 18.99 5.77L18.99 5.77L18.99 5.77Q19.66 6.05 20.13 6.55L20.13 6.55L20.13 6.55Q20.61 7.06 20.87 7.77L20.87 7.77L20.87 7.77Q21.14 8.48 21.14 9.35ZM19.01 9.35L19.01 9.35L19.01 9.35Q19.01 8.39 18.63 7.83L18.63 7.83L18.63 7.83Q18.24 7.28 17.53 7.28L17.53 7.28L17.53 7.28Q16.81 7.28 16.42 7.83L16.42 7.83L16.42 7.83Q16.03 8.39 16.03 9.35L16.03 9.35L16.03 9.35Q16.03 10.32 16.42 10.88L16.42 10.88L16.42 10.88Q16.81 11.45 17.53 11.45L17.53 11.45L17.53 11.45Q18.24 11.45 18.63 10.88L18.63 10.88L18.63 10.88Q19.01 10.32 19.01 9.35ZM27.54 5.81L27.19 7.53L27.19 7.53Q26.91 7.46 26.53 7.38L26.53 7.38L26.53 7.38Q26.15 7.31 25.72 7.31L25.72 7.31L25.72 7.31Q25.52 7.31 25.25 7.34L25.25 7.34L25.25 7.34Q24.98 7.38 24.84 7.42L24.84 7.42L24.84 13.05L22.75 13.05L22.75 6.08L22.75 6.08Q23.31 5.88 24.07 5.71L24.07 5.71L24.07 5.71Q24.84 5.53 25.77 5.53L25.77 5.53L25.77 5.53Q25.94 5.53 26.18 5.55L26.18 5.55L26.18 5.55Q26.42 5.57 26.66 5.61L26.66 5.61L26.66 5.61Q26.89 5.64 27.13 5.69L27.13 5.69L27.13 5.69Q27.37 5.74 27.54 5.81L27.54 5.81ZM30.44 9.31L30.44 9.31L30.44 9.31Q30.44 10.28 30.87 10.86L30.87 10.86L30.87 10.86Q31.30 11.45 32.16 11.45L32.16 11.45L32.16 11.45Q32.44 11.45 32.68 11.43L32.68 11.43L32.68 11.43Q32.91 11.41 33.07 11.38L33.07 11.38L33.07 7.59L33.07 7.59Q32.87 7.46 32.56 7.38L32.56 7.38L32.56 7.38Q32.24 7.29 31.92 7.29L31.92 7.29L31.92 7.29Q30.44 7.29 30.44 9.31ZM35.15 2.18L35.15 12.81L35.15 12.81Q34.87 12.89 34.51 12.97L34.51 12.97L34.51 12.97Q34.15 13.05 33.75 13.10L33.75 13.10L33.75 13.10Q33.35 13.16 32.94 13.20L32.94 13.20L32.94 13.20Q32.52 13.23 32.14 13.23L32.14 13.23L32.14 13.23Q31.23 13.23 30.52 12.96L30.52 12.96L30.52 12.96Q29.81 12.70 29.32 12.20L29.32 12.20L29.32 12.20Q28.83 11.70 28.57 11.00L28.57 11.00L28.57 11.00Q28.31 10.29 28.31 9.41L28.31 9.41L28.31 9.41Q28.31 8.51 28.53 7.79L28.53 7.79L28.53 7.79Q28.76 7.07 29.18 6.57L29.18 6.57L29.18 6.57Q29.60 6.06 30.21 5.80L30.21 5.80L30.21 5.80Q30.81 5.53 31.60 5.53L31.60 5.53L31.60 5.53Q32.03 5.53 32.38 5.61L32.38 5.61L32.38 5.61Q32.72 5.70 33.07 5.85L33.07 5.85L33.07 2.52L35.15 2.18ZM40.49 13.17L40.49 13.17L40.49 13.17Q39.69 13.17 38.90 13.13L38.90 13.13L38.90 13.13Q38.11 13.08 37.25 12.89L37.25 12.89L37.25 3.49L37.25 3.49Q37.93 3.36 38.72 3.30L38.72 3.30L38.72 3.30Q39.52 3.23 40.21 3.23L40.21 3.23L40.21 3.23Q41.13 3.23 41.91 3.37L41.91 3.37L41.91 3.37Q42.69 3.50 43.25 3.82L43.25 3.82L43.25 3.82Q43.81 4.14 44.12 4.67L44.12 4.67L44.12 4.67Q44.44 5.19 44.44 5.96L44.44 5.96L44.44 5.96Q44.44 7.13 43.32 7.80L43.32 7.80L43.32 7.80Q44.24 8.15 44.58 8.75L44.58 8.75L44.58 8.75Q44.91 9.35 44.91 10.11L44.91 10.11L44.91 10.11Q44.91 11.63 43.80 12.40L43.80 12.40L43.80 12.40Q42.69 13.17 40.49 13.17ZM40.75 8.82L39.38 8.82L39.38 11.33L39.38 11.33Q39.62 11.35 39.90 11.37L39.90 11.37L39.90 11.37Q40.18 11.38 40.52 11.38L40.52 11.38L40.52 11.38Q41.50 11.38 42.10 11.10L42.10 11.10L42.10 11.10Q42.70 10.82 42.70 10.07L42.70 10.07L42.70 10.07Q42.70 9.39 42.20 9.11L42.20 9.11L42.20 9.11Q41.69 8.82 40.75 8.82L40.75 8.82ZM39.38 5.04L39.38 7.15L40.45 7.15L40.45 7.15Q41.45 7.15 41.89 6.89L41.89 6.89L41.89 6.89Q42.32 6.64 42.32 6.06L42.32 6.06L42.32 6.06Q42.32 5.47 41.87 5.24L41.87 5.24L41.87 5.24Q41.43 5.00 40.56 5.00L40.56 5.00L40.56 5.00Q40.28 5.00 39.96 5.00L39.96 5.00L39.96 5.00Q39.63 5.01 39.38 5.04L39.38 5.04ZM51.31 5.81L50.96 7.53L50.96 7.53Q50.68 7.46 50.30 7.38L50.30 7.38L50.30 7.38Q49.92 7.31 49.49 7.31L49.49 7.31L49.49 7.31Q49.29 7.31 49.02 7.34L49.02 7.34L49.02 7.34Q48.75 7.38 48.61 7.42L48.61 7.42L48.61 13.05L46.52 13.05L46.52 6.08L46.52 6.08Q47.08 5.88 47.84 5.71L47.84 5.71L47.84 5.71Q48.61 5.53 49.55 5.53L49.55 5.53L49.55 5.53Q49.71 5.53 49.95 5.55L49.95 5.55L49.95 5.55Q50.19 5.57 50.43 5.61L50.43 5.61L50.43 5.61Q50.67 5.64 50.90 5.69L50.90 5.69L50.90 5.69Q51.14 5.74 51.31 5.81L51.31 5.81ZM52.08 9.42L52.08 9.42L52.08 9.42Q52.08 8.44 52.38 7.71L52.38 7.71L52.38 7.71Q52.68 6.97 53.17 6.48L53.17 6.48L53.17 6.48Q53.66 5.99 54.30 5.74L54.30 5.74L54.30 5.74Q54.94 5.49 55.61 5.49L55.61 5.49L55.61 5.49Q57.18 5.49 58.09 6.45L58.09 6.45L58.09 6.45Q59.00 7.41 59.00 9.27L59.00 9.27L59.00 9.27Q59.00 9.45 58.98 9.67L58.98 9.67L58.98 9.67Q58.97 9.88 58.95 10.05L58.95 10.05L54.22 10.05L54.22 10.05Q54.29 10.70 54.82 11.07L54.82 11.07L54.82 11.07Q55.36 11.45 56.25 11.45L56.25 11.45L56.25 11.45Q56.83 11.45 57.38 11.35L57.38 11.35L57.38 11.35Q57.93 11.24 58.28 11.09L58.28 11.09L58.56 12.78L58.56 12.78Q58.39 12.87 58.11 12.95L58.11 12.95L58.11 12.95Q57.83 13.03 57.49 13.10L57.49 13.10L57.49 13.10Q57.15 13.16 56.76 13.20L56.76 13.20L56.76 13.20Q56.36 13.24 55.97 13.24L55.97 13.24L55.97 13.24Q54.98 13.24 54.24 12.95L54.24 12.95L54.24 12.95Q53.51 12.66 53.03 12.14L53.03 12.14L53.03 12.14Q52.54 11.63 52.31 10.93L52.31 10.93L52.31 10.93Q52.08 10.23 52.08 9.42ZM54.22 8.62L56.98 8.62L56.98 8.62Q56.97 8.36 56.89 8.11L56.89 8.11L56.89 8.11Q56.81 7.85 56.65 7.66L56.65 7.66L56.65 7.66Q56.49 7.46 56.25 7.34L56.25 7.34L56.25 7.34Q56 7.21 55.64 7.21L55.64 7.21L55.64 7.21Q55.29 7.21 55.03 7.33L55.03 7.33L55.03 7.33Q54.78 7.45 54.61 7.64L54.61 7.64L54.61 7.64Q54.45 7.84 54.36 8.10L54.36 8.10L54.36 8.10Q54.26 8.36 54.22 8.62L54.22 8.62ZM65.09 8.82L65.09 8.82L65.09 8.82Q64.81 9.88 64.49 10.93L64.49 10.93L64.49 10.93Q64.18 11.98 63.83 13.05L63.83 13.05L62.20 13.05L62.20 13.05Q61.95 12.46 61.66 11.65L61.66 11.65L61.66 11.65Q61.36 10.84 61.05 9.88L61.05 9.88L61.05 9.88Q60.73 8.92 60.40 7.85L60.40 7.85L60.40 7.85Q60.07 6.78 59.77 5.68L59.77 5.68L61.96 5.68L61.96 5.68Q62.08 6.19 62.21 6.78L62.21 6.78L62.21 6.78Q62.34 7.38 62.49 8.01L62.49 8.01L62.49 8.01Q62.64 8.64 62.80 9.28L62.80 9.28L62.80 9.28Q62.96 9.91 63.13 10.50L63.13 10.50L63.13 10.50Q63.31 9.88 63.48 9.24L63.48 9.24L63.48 9.24Q63.66 8.60 63.82 7.97L63.82 7.97L63.82 7.97Q63.98 7.35 64.13 6.77L64.13 6.77L64.13 6.77Q64.27 6.19 64.39 5.68L64.39 5.68L65.90 5.68L65.90 5.68Q66.01 6.19 66.15 6.77L66.15 6.77L66.15 6.77Q66.29 7.35 66.44 7.97L66.44 7.97L66.44 7.97Q66.60 8.60 66.77 9.24L66.77 9.24L66.77 9.24Q66.93 9.88 67.12 10.50L67.12 10.50L67.12 10.50Q67.28 9.91 67.45 9.28L67.45 9.28L67.45 9.28Q67.62 8.64 67.77 8.01L67.77 8.01L67.77 8.01Q67.91 7.38 68.05 6.78L68.05 6.78L68.05 6.78Q68.18 6.19 68.29 5.68L68.29 5.68L70.46 5.68L70.46 5.68Q70.15 6.78 69.83 7.85L69.83 7.85L69.83 7.85Q69.50 8.92 69.18 9.88L69.18 9.88L69.18 9.88Q68.87 10.84 68.56 11.65L68.56 11.65L68.56 11.65Q68.26 12.46 68.01 13.05L68.01 13.05L66.39 13.05L66.39 13.05Q66.04 11.98 65.70 10.93L65.70 10.93L65.70 10.93Q65.37 9.88 65.09 8.82Z"></path></g><defs data-v-fde0c5aa=""><linearGradient data-v-fde0c5aa="" gradientTransform="rotate(25)" id="103e54a7-ff22-4238-9aa6-b33ba8b105d1" x1="0%" y1="0%" x2="100%" y2="0%"><stop data-v-fde0c5aa="" offset="0%" stop-color="#EB4C00" stop-opacity="1"></stop><stop data-v-fde0c5aa="" offset="100%" stop-color="#F2A900" stop-opacity="1"></stop></linearGradient></defs><g data-v-fde0c5aa="" id="7b57ede1-8824-4927-a092-8b879cc04688" stroke="none" fill="url(#103e54a7-ff22-4238-9aa6-b33ba8b105d1)" transform="matrix(0.41262682580244403,0,0,0.41262682580244403,36.549614684117905,129.3686587098778)"><path d="M8.362 90.717c0 5.093 4.142 9.283 9.194 9.283h46.127c3.65 0 7.317-3.06 7.317-6.71V82h5.526c2.72 0 5.358-1.189 7.334-3.145 1.991-1.97 3.14-4.672 3.14-7.403V49.334C87 43.782 82.243 39 76.526 39H71v-2.216c0-.106-.361-.21-.373-.312 2.799-2.069 4.448-5.43 4.448-9.133 0-5.757-4.498-10.644-10.123-11.149C63.547 7.023 55.584 0 46.024 0 37.94 0 31.006 5.036 28.216 12.13a13.35 13.35 0 0 0-2.373-.198C18.663 11.933 13.136 18 13 25v31.638c-1 1.717-2.611 3.975-2.611 6.406 0 5.301 4.247 9.613 9.532 9.613a.304.304 0 0 0 .079-.004v2.792c-1-.302-1.394-.472-2.163-.472a5.158 5.158 0 0 0-5.158 5.155c0 .87.214 1.71.594 2.43-2.905 1.551-4.911 4.634-4.911 8.159zm11.547-10.59a2.07 2.07 0 0 1-.621 1.479 2.07 2.07 0 0 1-2.976-.063 2.071 2.071 0 0 1-.562-1.417c0-1.146.933-2.079 2.079-2.079a2.084 2.084 0 0 1 2.08 2.08zM71 77V44h5.526C79.735 44 83 46.126 83 49.334v22.117C83 74.66 79.735 77 76.526 77H71zM59 54.973c0-1.396 1.105-2.527 2.5-2.527 1.396 0 2.5 1.131 2.5 2.527v35.589c0 1.396-1.104 2.527-2.5 2.527-1.395 0-2.5-1.131-2.5-2.527V54.973zm-11 0c0-1.396 1.104-2.527 2.5-2.527s2.5 1.131 2.5 2.527v35.589c0 1.396-1.104 2.527-2.5 2.527S48 91.958 48 90.562V54.973zm-10 0c0-1.396 1.105-2.527 2.5-2.527s2.5 1.131 2.5 2.527v35.589c0 1.396-1.104 2.527-2.5 2.527S38 91.958 38 90.562V54.973zM27.038 93.089c0-.315.046-.619.124-.909a3.536 3.536 0 0 1 3.41-2.625 3.54 3.54 0 0 1 3.534 3.534 3.537 3.537 0 0 1-3.534 3.533 3.537 3.537 0 0 1-3.534-3.533zM27 54.973c0-1.396 1.104-2.527 2.5-2.527 1.395 0 2.5 1.131 2.5 2.527v31.592c0-.056-.671-.085-1.03-.085-1.501 0-2.97.502-3.97 1.346V54.973zM25 39h41v9H25v-9zm-2.453-5C21.102 34 20 35.338 20 36.784V68.26c0 .001-.108.004-.16.004-2.882 0-5.141-2.337-5.141-5.22 0-1.844 1.3-3.463 2.3-4.392 0 0-.031-33.571-.03-33.631.045-2.352.923-4.569 2.59-6.261 1.702-1.727 3.999-2.744 6.377-2.744 2.312 0 4.894.828 4.894.828l1.252-3.194a14.91 14.91 0 0 1 5.4-6.816 14.838 14.838 0 0 1 8.498-2.653c3.589 0 7.057 1.29 9.765 3.636a14.92 14.92 0 0 1 4.99 9.006l.495 3.23 3.258.287c3.496.314 6.233 3.346 6.233 6.918 0 1.86-.725 3.494-2.04 4.839C67.38 33.427 65.668 34 63.864 34H22.547zm-9.765 56.672a4.833 4.833 0 0 1 4.828-4.827 4.831 4.831 0 0 1 4.827 4.827A4.831 4.831 0 0 1 17.61 95.5a4.834 4.834 0 0 1-4.828-4.828z"></path></g><!----></svg>