<?xml version="1.0" encoding="utf-8"?>
<svg viewBox="0 0 35 43" xmlns="http://www.w3.org/2000/svg">
  <defs>
    <linearGradient data-v-fde0c5aa="" gradientTransform="rotate(25)" id="103e54a7-ff22-4238-9aa6-b33ba8b105d1" x1="0%" y1="0%" x2="100%" y2="0%">
      <stop data-v-fde0c5aa="" offset="0" stop-color="#EB4C00" stop-opacity="1"/>
      <stop data-v-fde0c5aa="" offset="1" stop-color="#F2A900" stop-opacity="1"/>
    </linearGradient>
  </defs>
  <rect data-v-fde0c5aa="" width="144.335" height="194.333" class="logo-background-square" style="fill: none;"/>
  <g data-v-fde0c5aa="" id="7b57ede1-8824-4927-a092-8b879cc04688" stroke="none" fill="url(#103e54a7-ff22-4238-9aa6-b33ba8b105d1)" transform="matrix(0.412627, 0, 0, 0.412627, -2.108565, 0.48665)">
    <path d="M8.362 90.717c0 5.093 4.142 9.283 9.194 9.283h46.127c3.65 0 7.317-3.06 7.317-6.71V82h5.526c2.72 0 5.358-1.189 7.334-3.145 1.991-1.97 3.14-4.672 3.14-7.403V49.334C87 43.782 82.243 39 76.526 39H71v-2.216c0-.106-.361-.21-.373-.312 2.799-2.069 4.448-5.43 4.448-9.133 0-5.757-4.498-10.644-10.123-11.149C63.547 7.023 55.584 0 46.024 0 37.94 0 31.006 5.036 28.216 12.13a13.35 13.35 0 0 0-2.373-.198C18.663 11.933 13.136 18 13 25v31.638c-1 1.717-2.611 3.975-2.611 6.406 0 5.301 4.247 9.613 9.532 9.613a.304.304 0 0 0 .079-.004v2.792c-1-.302-1.394-.472-2.163-.472a5.158 5.158 0 0 0-5.158 5.155c0 .87.214 1.71.594 2.43-2.905 1.551-4.911 4.634-4.911 8.159zm11.547-10.59a2.07 2.07 0 0 1-.621 1.479 2.07 2.07 0 0 1-2.976-.063 2.071 2.071 0 0 1-.562-1.417c0-1.146.933-2.079 2.079-2.079a2.084 2.084 0 0 1 2.08 2.08zM71 77V44h5.526C79.735 44 83 46.126 83 49.334v22.117C83 74.66 79.735 77 76.526 77H71zM59 54.973c0-1.396 1.105-2.527 2.5-2.527 1.396 0 2.5 1.131 2.5 2.527v35.589c0 1.396-1.104 2.527-2.5 2.527-1.395 0-2.5-1.131-2.5-2.527V54.973zm-11 0c0-1.396 1.104-2.527 2.5-2.527s2.5 1.131 2.5 2.527v35.589c0 1.396-1.104 2.527-2.5 2.527S48 91.958 48 90.562V54.973zm-10 0c0-1.396 1.105-2.527 2.5-2.527s2.5 1.131 2.5 2.527v35.589c0 1.396-1.104 2.527-2.5 2.527S38 91.958 38 90.562V54.973zM27.038 93.089c0-.315.046-.619.124-.909a3.536 3.536 0 0 1 3.41-2.625 3.54 3.54 0 0 1 3.534 3.534 3.537 3.537 0 0 1-3.534 3.533 3.537 3.537 0 0 1-3.534-3.533zM27 54.973c0-1.396 1.104-2.527 2.5-2.527 1.395 0 2.5 1.131 2.5 2.527v31.592c0-.056-.671-.085-1.03-.085-1.501 0-2.97.502-3.97 1.346V54.973zM25 39h41v9H25v-9zm-2.453-5C21.102 34 20 35.338 20 36.784V68.26c0 .001-.108.004-.16.004-2.882 0-5.141-2.337-5.141-5.22 0-1.844 1.3-3.463 2.3-4.392 0 0-.031-33.571-.03-33.631.045-2.352.923-4.569 2.59-6.261 1.702-1.727 3.999-2.744 6.377-2.744 2.312 0 4.894.828 4.894.828l1.252-3.194a14.91 14.91 0 0 1 5.4-6.816 14.838 14.838 0 0 1 8.498-2.653c3.589 0 7.057 1.29 9.765 3.636a14.92 14.92 0 0 1 4.99 9.006l.495 3.23 3.258.287c3.496.314 6.233 3.346 6.233 6.918 0 1.86-.725 3.494-2.04 4.839C67.38 33.427 65.668 34 63.864 34H22.547zm-9.765 56.672a4.833 4.833 0 0 1 4.828-4.827 4.831 4.831 0 0 1 4.827 4.827A4.831 4.831 0 0 1 17.61 95.5a4.834 4.834 0 0 1-4.828-4.828z"/>
  </g>
</svg>