<?xml version="1.0" standalone="no"?>
<!DOCTYPE svg PUBLIC "-//W3C//DTD SVG 20010904//EN"
 "http://www.w3.org/TR/2001/REC-SVG-20010904/DTD/svg10.dtd">
<svg version="1.0" xmlns="http://www.w3.org/2000/svg"
 width="763.000000pt" height="763.000000pt" viewBox="0 0 763.000000 763.000000"
 preserveAspectRatio="xMidYMid meet">
<metadata>
Created by potrace 1.14, written by Peter Selinger 2001-2017
</metadata>
<g transform="translate(0.000000,763.000000) scale(0.100000,-0.100000)"
fill="#000000" stroke="none">
<path d="M3550 7623 c-419 -52 -751 -231 -999 -538 -87 -107 -144 -200 -192
-307 -25 -58 -38 -76 -49 -72 -26 11 -242 12 -305 3 -83 -13 -204 -53 -289
-95 -271 -136 -484 -425 -531 -721 -2 -12 -7 -36 -11 -55 -4 -18 -8 -595 -9
-1283 l-1 -1250 -47 -78 c-148 -245 -177 -377 -127 -587 15 -67 67 -183 108
-242 112 -162 315 -285 502 -304 30 -3 64 -7 75 -8 18 -3 20 -12 23 -104 1
-56 1 -102 -2 -102 -2 0 -31 7 -63 15 -104 27 -176 20 -270 -26 -101 -49 -174
-136 -206 -245 -19 -64 -15 -185 7 -238 9 -21 16 -42 16 -47 0 -5 -24 -24 -52
-42 -111 -71 -221 -209 -269 -336 -49 -132 -59 -309 -23 -436 76 -266 302
-472 565 -513 31 -5 882 -8 1895 -7 1789 1 1840 2 1894 21 198 69 350 223 389
394 6 27 11 223 11 500 l0 455 233 1 c247 0 325 6 397 28 269 84 478 295 562
568 l23 73 1 960 c2 920 2 963 -17 1035 -76 294 -300 516 -594 591 -81 20
-116 22 -345 23 l-255 2 -3 87 c-2 60 -7 89 -16 93 -8 3 20 38 74 92 97 97
154 188 199 316 38 108 45 156 46 311 0 137 -5 160 -57 300 -99 261 -345 470
-617 522 l-91 18 -10 55 c-18 91 -75 259 -119 352 -87 181 -210 338 -386 493
-54 47 -208 146 -292 186 -76 36 -238 95 -287 105 -12 2 -32 6 -46 9 -45 10
-74 15 -110 21 -39 6 -291 11 -330 7z m330 -332 c436 -83 783 -402 901 -831 7
-25 12 -48 11 -52 -1 -4 2 -18 7 -30 5 -13 11 -50 15 -83 4 -33 12 -91 19
-130 11 -63 14 -69 37 -71 211 -14 219 -15 305 -35 180 -41 353 -228 383 -414
27 -168 -21 -328 -135 -451 -57 -62 -162 -126 -225 -138 -12 -2 -36 -7 -52
-11 -16 -5 -765 -8 -1665 -9 -1817 -2 -1665 4 -1725 -67 -59 -70 -56 7 -56
-1325 l0 -1224 -49 5 c-198 20 -352 191 -352 390 0 97 49 208 136 304 l36 40
2 1328 c1 730 6 1345 10 1367 4 21 20 70 35 110 115 296 425 478 741 435 103
-14 214 -38 252 -53 12 -5 20 4 33 41 10 26 22 57 26 68 5 11 23 56 40 100
155 400 482 670 895 738 94 16 283 15 375 -2z m1310 -2640 c14 -1 16 -41 15
-342 l0 -342 -1550 1 c-852 0 -1555 1 -1561 1 -12 1 -16 673 -3 681 6 4 3040
5 3099 1z m900 -384 c200 -26 378 -176 407 -342 5 -27 8 -441 7 -920 -1 -909
-1 -911 -44 -995 -62 -120 -226 -228 -373 -246 -42 -5 -407 -9 -479 -5 -17 1
-18 68 -18 1254 0 690 2 1256 4 1258 6 6 443 2 496 -4z m-3567 -669 c44 -31
52 -39 73 -78 17 -33 18 -92 19 -1260 l0 -1225 -60 -1 c-117 -1 -199 -22 -277
-71 -21 -13 -39 -23 -40 -23 -2 0 -3 573 -3 1272 l0 1273 24 42 c24 42 78 86
117 95 41 10 116 -2 147 -24z m824 8 c38 -19 79 -64 93 -101 9 -22 12 -400 12
-1427 l0 -1397 -21 -45 c-13 -26 -39 -56 -63 -72 -35 -24 -51 -29 -104 -29
-53 0 -69 5 -105 30 -23 17 -52 48 -63 70 -21 40 -21 42 -22 1430 0 832 4
1405 9 1428 11 45 77 113 121 126 40 12 108 6 143 -13z m778 -8 c20 -11 48
-41 63 -67 l27 -46 0 -1390 c1 -797 -3 -1405 -8 -1425 -23 -86 -112 -147 -201
-136 -65 7 -119 46 -148 105 l-23 46 1 1385 c0 762 4 1398 7 1414 18 83 113
150 199 141 27 -3 64 -15 83 -27z m842 -2 c22 -15 50 -45 63 -69 l24 -42 0
-1405 c0 -1343 -1 -1407 -18 -1440 -23 -43 -69 -85 -106 -99 -15 -5 -51 -8
-79 -7 -68 4 -121 40 -153 103 l-24 48 1 1400 c1 1519 -3 1419 52 1481 56 64
167 78 240 30z m-3365 -1938 c105 -46 118 -201 22 -267 -123 -85 -285 33 -237
174 17 50 38 73 88 96 45 21 73 20 127 -3z m9 -589 c142 -45 243 -153 267
-286 33 -184 -78 -368 -253 -418 -203 -59 -400 50 -461 255 -55 184 74 405
263 449 54 13 144 13 184 0z m973 -284 c90 -26 169 -113 183 -199 3 -17 6 -37
7 -45 9 -57 -37 -166 -90 -212 -120 -106 -316 -79 -401 54 -39 61 -54 148 -35
212 20 69 64 130 118 161 77 45 135 53 218 29z"/>
</g>
</svg>
