<?xml version="1.0" encoding="utf-8"?>
<svg viewBox="346 157 65 72" xmlns="http://www.w3.org/2000/svg">
  <path stroke-miterlimit="10" stroke-width="3.5" d="M 316.502 114.337 L 303.297 114.337 L 303.297 123.07 L 316.502 123.07 C 318.506 123.072 320.129 124.695 320.132 126.699 L 320.132 140.732 C 320.13 142.736 318.506 144.359 316.502 144.361 L 303.297 144.361 L 303.297 153.094 L 316.502 153.094 C 323.319 153.094 328.865 147.548 328.865 140.732 L 328.865 126.699 C 328.865 119.883 323.319 114.337 316.502 114.337 Z" style="animation-play-state: paused; stroke: rgb(104, 72, 8); fill: rgb(242, 232, 208);" transform="matrix(0.8, 0, 0, 0.8, 144, 90)"/>
  <path stroke-miterlimit="10" stroke-width="3.5" d="M 302.538 167.378 L 273.18 167.378 C 268.607 167.378 264.9 163.671 264.9 159.098 L 264.9 107.802 L 310.817 107.802 L 310.817 159.098 C 310.818 163.671 307.111 167.378 302.538 167.378 Z" style="animation-play-state: paused; stroke: rgb(104, 72, 8); fill: rgb(242, 232, 208);" transform="matrix(0.8, 0, 0, 0.8, 144, 90)"/>
  <path d="M 299.984 162.192 L 275.734 162.192 C 272.767 162.192 270.361 159.786 270.361 156.819 L 270.361 115.032 C 270.361 114.707 270.624 114.444 270.949 114.444 L 304.769 114.444 C 305.094 114.444 305.357 114.707 305.357 115.032 L 305.357 156.818 C 305.357 159.786 302.952 162.191 299.984 162.192 Z" style="animation-play-state: paused; fill: rgb(248, 178, 106);" transform="matrix(0.8, 0, 0, 0.8, 144, 90)"/>
  <path stroke-miterlimit="10" stroke-width="3.5" d="M 304.7 89.777 C 300.164 89.777 296.325 92.748 295.014 96.849 C 293.886 95.521 292.232 94.756 290.489 94.757 C 288.115 94.757 285.968 96.168 285.027 98.348 C 283.695 97.731 282.244 97.411 280.776 97.41 C 280.488 97.41 280.204 97.43 279.922 97.453 C 280.262 96.595 280.437 95.68 280.437 94.757 C 280.462 89.08 274.331 85.505 269.402 88.323 C 267.281 89.535 265.898 91.72 265.709 94.157 L 265.679 94.155 C 259.536 94.155 255.697 100.805 258.768 106.125 C 260.194 108.594 262.828 110.115 265.679 110.115 C 267.477 110.116 269.222 109.507 270.628 108.388 C 270.716 109.532 271.003 110.618 271.437 111.625 L 271.437 124.328 C 271.437 127.76 275.153 129.906 278.126 128.19 C 279.505 127.393 280.355 125.921 280.355 124.328 L 280.355 117.765 C 280.496 117.771 280.634 117.785 280.777 117.785 C 283.427 117.785 285.833 116.765 287.645 115.107 C 287.907 115.346 288.184 115.568 288.469 115.78 L 288.469 146.699 C 288.469 150.131 292.185 152.277 295.158 150.561 C 296.537 149.764 297.387 148.292 297.387 146.699 L 297.387 117.365 C 300.835 116.345 303.492 113.585 304.379 110.1 C 304.487 110.103 304.593 110.116 304.701 110.116 C 310.317 110.116 314.871 105.563 314.871 99.946 C 314.87 94.33 310.317 89.777 304.7 89.777 Z" style="fill: rgb(255, 255, 255); animation-play-state: paused; stroke: rgb(104, 72, 8);" fill="#fff" transform="matrix(0.8, 0, 0, 0.8, 144, 90)"/>
</svg>